<svg width="20" height="21" viewBox="0 0 20 21" fill="none" xmlns="http://www.w3.org/2000/svg">
<path d="M3.75 12.0834C3.75 10.5196 3.75 9.73778 4.16329 9.19916C4.26969 9.0605 4.39381 8.93638 4.53248 8.82998C5.07109 8.41669 5.85295 8.41669 7.41667 8.41669H12.5833C14.147 8.41669 14.9289 8.41669 15.4675 8.82998C15.6062 8.93638 15.7303 9.0605 15.8367 9.19916C16.25 9.73778 16.25 10.5196 16.25 12.0834V12.0834C16.25 14.4289 16.25 15.6017 15.6301 16.4096C15.4705 16.6176 15.2843 16.8038 15.0763 16.9634C14.2684 17.5834 13.0956 17.5834 10.75 17.5834H9.25C6.90442 17.5834 5.73164 17.5834 4.92372 16.9634C4.71572 16.8038 4.52954 16.6176 4.36994 16.4096C3.75 15.6017 3.75 14.4289 3.75 12.0834V12.0834Z" fill="white" stroke="#6D6E82"/>
<path d="M13.75 8.41669V7.16669C13.75 5.09562 12.0711 3.41669 10 3.41669V3.41669C7.92893 3.41669 6.25 5.09562 6.25 7.16669V8.41669" stroke="#6D6E82" stroke-linecap="round"/>
</svg>
